<svg xmlns:xlink="http://www.w3.org/1999/xlink" xmlns="http://www.w3.org/2000/svg" role="presentation" class="channels-nav__item__logo channels-nav__item__logo--active" focusable="false" width="1140"  height="480" ><defs><symbol id="iplayer-nav-icon-bbcone-active" viewBox="0 0 1140 480"><path d="M0 0h1140v480H0z" fill="#EA2923"></path><path d="M909.7 257.8H742.2c4.2 31.1 24.7 54.7 70.8 54.7 25.9 0 54.1-8.9 73.4-22l16.4 30.4c-28.3 22.7-65.8 30.9-97.5 30.9-63.6 0-109.2-44.1-109.2-111.9 0-66.3 44.7-113.5 108.3-113.5 67.3 0 106.9 46.7 106.9 111.9.1 7.7-.6 13.4-1.6 19.5zM866.4 223c0-13.5-4.4-29.8-16.5-41.1-11.2-10.5-25.9-15.5-45.4-15.5-36.7 0-59.1 23.3-62.5 56.5l124.4.1zm-527.7 88.3c21.1 0 37-6.6 48-18.2 11.6-12.2 17.7-30.1 17.7-54 0-23.7-6-41.8-17.7-54-11.1-11.6-26.9-18.2-48-18.2s-37 6.6-48 18.2c-11.6 12.2-17.7 30.1-17.7 54s6 41.8 17.7 54c11.1 11.7 26.9 18.2 48 18.2zm0 40.5c-65.1 0-110.1-46.6-110.1-112.7 0-66 45-112.7 110.1-112.7S448.8 173 448.8 239.1s-45 112.7-110.1 112.7zM680 349h-42.3a341.4 341.4 0 0 1-4.5-59.9l-.1-51.4c0-26.6-6.3-42.4-16.6-52.6-10-9.9-23.7-13.6-39-13.6-18 0-35.2 5.9-47.2 18.7-12.4 13.3-18 31.5-18 59.1V349h-42.7V195.6c0-20.6-1.3-43.8-4.5-59.9h41.5a174 174 0 0 1 5.6 31.1h.4a88.2 88.2 0 0 1 75.1-37.4c28 0 49.4 11.1 62.2 24.3 16 16.4 26 36.7 26 81.2V289c-.3 20.6.9 43.8 4.1 60z" fill="#FFFFFF"></path></symbol></defs><use xmlns:xlink="http://www.w3.org/1999/xlink" xlink:href="#iplayer-nav-icon-bbcone-active" href="#iplayer-nav-icon-bbcone-active" role="presentation" fill="#F54997"></use></svg>