<svg xmlns:xlink="http://www.w3.org/1999/xlink" xmlns="http://www.w3.org/2000/svg" role="presentation" class="channels-nav__item__logo channels-nav__item__logo--active" focusable="false" width="901"  height="379" ><defs><symbol id="iplayer-nav-icon-bbcscotland-active" viewBox="0 0 901 379"><rect width="100%" height="100%" fill="#2E10A7"></rect><path d="M67.236 130.64c7.6-3.118 13.404-7.57 17.412-13.345 4.002-5.774 6.005-12.728 6.005-20.856 0-6.361-1.12-11.667-3.355-15.906-2.241-4.245-5.336-7.749-9.278-10.517-3.954-2.769-8.484-5.04-13.612-6.806a193.237 193.237 0 0 0-16.173-4.772c-5.187-1.299-9.723-2.62-13.612-3.978-3.89-1.352-6.889-3.178-9.011-5.478-2.123-2.3-3.184-5.448-3.184-9.456 0-5.537 2.235-9.812 6.717-12.817 4.476-3 10.719-4.506 18.734-4.506 7.073 0 13.76.913 20.062 2.74 6.302 1.831 11.815 4.214 16.529 7.16V12.132c-4.95-2.59-10.606-4.654-16.967-6.19a82.202 82.202 0 0 0-19.267-2.294c-9.9 0-18.443 1.53-25.629 4.595C15.416 11.307 9.879 15.635 5.99 21.23 2.107 26.827.162 33.515.162 41.293c0 5.774.996 10.665 3 14.673 2.004 4.007 4.861 7.363 8.573 10.072 3.71 2.71 8.133 5.039 13.256 6.984 5.128 1.944 10.814 3.681 17.062 5.21 3.414.825 6.681 1.714 9.805 2.65 3.125.95 5.893 2.153 8.306 3.629 2.419 1.47 4.334 3.296 5.745 5.478 1.417 2.181 2.122 4.92 2.122 8.217 0 5.774-2.383 10.316-7.155 13.612-4.773 3.296-11.578 4.95-20.418 4.95-14.258 0-27.455-3.77-39.59-11.317v20.507c5.887 3.183 12.195 5.537 18.912 7.067a90.935 90.935 0 0 0 20.329 2.3c10.482 0 19.528-1.565 27.129-4.684zm114.04-2.211V110.05c-3.776 2.59-7.69 4.505-11.756 5.744-4.067 1.233-8.335 1.856-12.811 1.856-8.484 0-15.112-2.68-19.884-8.045-4.772-5.36-7.162-12.87-7.162-22.534 0-9.545 2.413-16.997 7.25-22.362 4.827-5.36 11.603-8.039 20.324-8.039a39.3 39.3 0 0 1 12.017 1.856 38.705 38.705 0 0 1 10.784 5.389V45.182a45.378 45.378 0 0 0-11.49-4.417c-4.007-.943-8.423-1.417-13.255-1.417-9.664 0-18.058 1.945-25.184 5.834-7.132 3.889-12.64 9.426-16.53 16.612-3.888 7.19-5.833 15.616-5.833 25.279 0 10.132 1.856 18.764 5.567 25.895 3.711 7.126 9.047 12.58 16.001 16.345 6.948 3.77 15.372 5.655 25.273 5.655 10.132 0 19.03-2.181 26.69-6.539zm35.328-83.247c-6.658 3.889-11.815 9.426-15.461 16.612-3.658 7.19-5.484 15.616-5.484 25.279 0 7.304 1.061 13.902 3.184 19.795s5.128 10.932 9.011 15.112c3.89 4.185 8.573 7.398 14.056 9.633 5.478 2.235 11.632 3.356 18.467 3.356 9.195 0 17.115-1.945 23.773-5.828 6.658-3.889 11.815-9.396 15.467-16.529 3.652-7.126 5.478-15.58 5.478-25.362 0-7.304-1.061-13.902-3.178-19.8-2.122-5.888-5.128-10.927-9.017-15.113-3.889-4.18-8.572-7.393-14.05-9.628-5.478-2.24-11.638-3.361-18.473-3.361-9.189 0-17.115 1.944-23.773 5.834zm11.4 68.758c-3.415-2.478-6.005-5.982-7.778-10.517-1.767-4.536-2.65-9.99-2.65-16.351 0-9.545 2.004-16.997 6.011-22.362 4.002-5.36 9.605-8.04 16.79-8.04 4.831 0 8.957 1.24 12.372 3.712s6.012 6.011 7.779 10.606c1.766 4.594 2.65 10.013 2.65 16.262 0 9.545-2.004 16.997-6.006 22.356-4.008 5.365-9.61 8.045-16.795 8.045-4.832 0-8.952-1.24-12.373-3.711zm133.45 0c-5.069 2.472-9.841 3.71-14.317 3.71-8.958 0-13.434-4.534-13.434-13.611v-45.78h25.629V41.647h-25.629V13.19l-21.39 4.944v23.512h-16.612v16.612h16.612v47.368c0 9.545 2.478 16.825 7.428 21.83 4.945 5.009 12.195 7.51 21.74 7.51 7.304 0 13.962-1.41 19.973-4.238v-16.79zM409 133.557c2.585-.475 4.885-1.18 6.889-2.123V115.35c-2.828 1.417-5.597 2.123-8.306 2.123-2.828 0-4.832-.706-6.011-2.123-1.18-1.41-1.767-3.652-1.767-6.717V.993H378.42v109.23c0 8.134 1.826 14.175 5.478 18.117 3.652 3.955 9.189 5.923 16.612 5.923 3.065 0 5.893-.237 8.49-.706zm104.03-.884v-85.02c-6.13-2.828-12.082-4.914-17.857-6.272-5.774-1.352-11.549-2.033-17.317-2.033-10.019 0-18.651 1.974-25.895 5.922-7.245 3.948-12.817 9.604-16.7 16.967-3.89 7.363-5.834 16.232-5.834 26.601 0 9.426 1.53 17.584 4.595 24.48 3.06 6.894 7.452 12.23 13.167 15.994 5.715 3.77 12.402 5.656 20.062 5.656 10.606 0 19.38-4.298 26.334-12.9l1.239 10.606h18.206zm-55.058-67.875c4.417-5.418 10.748-8.128 19.001-8.128 2.828 0 5.36.208 7.6.617 2.235.415 4.595 1.15 7.067 2.211v48.785c-5.3 6.243-11.667 9.367-19.09 9.367-6.835 0-12.076-2.567-15.728-7.689-3.652-5.128-5.478-12.52-5.478-22.184 0-9.894 2.206-17.554 6.628-22.979zm135.7-3.177c2.828 3.177 4.245 7.837 4.245 13.962v57.09H619.3V74.523c0-7.423-1.263-13.754-3.8-19.001-2.532-5.241-6.184-9.249-10.956-12.017s-10.458-4.156-17.056-4.156c-11.311 0-20.856 4.594-28.634 13.79l-1.411-11.49h-18.206v91.026h21.384V67.277c5.655-6.954 12.669-10.428 21.034-10.428 5.181 0 9.189 1.589 12.017 4.772zm131.58 71.053V.994h-21.39v42.952c-5.893-3.06-12.254-4.595-19.09-4.595-9.076 0-16.967 2.034-23.684 6.1-6.717 4.061-11.904 9.782-15.556 17.145-3.652 7.364-5.478 16.114-5.478 26.245 0 9.427 1.56 17.584 4.684 24.48 3.124 6.894 7.54 12.23 13.256 15.994 5.715 3.771 12.52 5.656 20.418 5.656 5.418 0 10.428-1.031 15.023-3.089 4.594-2.063 8.72-5.276 12.373-9.633l1.239 10.428h18.206zm-56.563-67.786c4.476-5.478 10.843-8.217 19.09-8.217 2.946 0 5.685.326 8.217.972 2.537.646 5.158 1.737 7.867 3.267v47.019c-5.656 6.48-12.313 9.722-19.973 9.722-7.191 0-12.64-2.567-16.351-7.689-3.711-5.128-5.567-12.462-5.567-22.006 0-9.9 2.235-17.59 6.717-23.068z" transform="translate(89 122)" fill="#FFFFFF"></path></symbol></defs><use xmlns:xlink="http://www.w3.org/1999/xlink" xlink:href="#iplayer-nav-icon-bbcscotland-active" href="#iplayer-nav-icon-bbcscotland-active" role="presentation" fill="#FFFFFF"></use></svg>