<svg xmlns:xlink="http://www.w3.org/1999/xlink" xmlns="http://www.w3.org/2000/svg" role="presentation" class="channels-nav__item__logo" focusable="false" width="1140"  height="480" ><defs><symbol id="iplayer-nav-icon-s4c" viewBox="0 0 1140 480"><path d="M308.3 354c-20 0-40.9-6.2-62.2-18.5l-1.2-.8 18.4-31.3 3.4 1.8c12.3 6.8 24 13.2 38.5 13.2 17 0 34.2-8.7 34.2-28 0-18-17-25.6-36.6-34.5-25.7-11.5-54.8-24.6-54.8-64.6 0-38.3 31.6-67.2 73.6-67.2 20.7 0 40.9 5.6 60 16.9l1 .6-17 33.5-1.3-.9c-10.2-7-26.4-14.6-37.7-14.6-20.1 0-33.6 12.1-33.6 30.2.2 18 16.3 24.9 35.1 33 25.6 10.9 54.5 23.3 54.5 66.4 0 37.5-31.3 64.8-74.3 64.8m185.9-4.5v-48.2h-88.8l-11.3-30.6 100.5-139h41.2v134H556v35.6h-20.6v48.2h-41.2zm1.6-167.4l-56.6 83.6h56.5l.1-83.6zM683.7 354C617.3 354 569 305.9 569 239.7c0-68.1 46.5-115.6 113-115.6 27 0 52.6 9 72.2 25.5l1 .8L736 181l-1.2-1a85.6 85.6 0 0 0-51.5-18.3c-40.2 0-69.2 32-69.2 76.3 0 43.4 30.5 78.7 68 78.7a97 97 0 0 0 54.2-14l1.2-.7 17.4 30-1 .8a123.4 123.4 0 0 1-70.2 21.3" fill="#FFFFFF" class="navigation__svgs__icon__text"></path></symbol></defs><use xmlns:xlink="http://www.w3.org/1999/xlink" xlink:href="#iplayer-nav-icon-s4c" href="#iplayer-nav-icon-s4c" role="presentation" fill="#FFFFFF"></use></svg>