<svg xmlns:xlink="http://www.w3.org/1999/xlink" xmlns="http://www.w3.org/2000/svg" role="presentation" class="channels-nav__item__logo" focusable="false" width="1140"  height="480" ><defs><symbol id="iplayer-nav-icon-bbcparliament" viewBox="0 0 1140 480"><path d="M144.6 308.5V207.1h32.1c9.6 0 17.4 2.6 23.1 7.9a26.7 26.7 0 0 1 8.6 21c0 6-1.4 11.1-4.4 15.6-3 4.5-7 7.9-12.1 9.9-5.2 2-12.5 3.1-22.1 3.1H159v44h-14.4zm29.6-88.6h-15.1v31.7H175c5.9 0 10.5-1.3 13.6-4.1s4.8-6.8 4.8-11.9c.1-10.4-6.4-15.6-19.2-15.7zm69.9-13.2h10.3l45.3 101.9h-14.9l-13.4-30h-43.1l-12.8 30h-14.9l43.5-101.9zm21.3 58.9L249.1 229l-15.2 36.7h31.5zm45.9 42.9V207.3h25.3a37 37 0 0 1 24.4 7.6c6 5.1 9 12 9 20.6a26 26 0 0 1-4.4 15.3c-3 4.3-7.1 7.6-12.7 9.6 3.2 2.1 6.4 5.1 9.5 8.7 3.1 3.6 7.4 10.1 13.1 19.2a248 248 0 0 0 8.4 13l5.4 7.3h-17.2l-4.4-6.7-.9-1.2-2.8-3.9-4.5-7.4-4.8-7.9a99 99 0 0 0-8.4-10 28.5 28.5 0 0 0-6.7-5.3c-1.9-1.2-5.3-1.6-10.1-1.6h-3.8v44.1h-14.4v-.2zm18.8-88.9h-4.4v32h5.5c7.4 0 12.4-.7 15.1-1.9 2.8-1.2 4.9-3.2 6.4-5.7 1.5-2.6 2.3-5.5 2.3-8.7 0-3.2-.9-6-2.5-8.6a13.8 13.8 0 0 0-7.2-5.5c-3-1.1-8.1-1.6-15.2-1.6zm70.4-12.3h14.6v88.1h45.5v13.2h-60.1m74.2-101.3h14.6v101.3h-14.6m70.6-101.9h10.2l45.3 101.9h-14.9l-13.5-30h-43l-12.8 30h-14.8l43.5-101.9zm21.3 58.9L550.3 229l-15.2 36.7h31.5zm128.7-58.3h13.4v101.3h-14.6v-78.8L662.9 269h-2.6l-31.5-39.2v78.8h-14.5V207.3H628l33.7 41.6m67.6-41.6h57.4v12.9h-42.9V251h41.5v13h-41.5v31.5H788v12.9h-58.8m154.7-101.1h13.8v101.3h-12.5l-67.7-78v78H804V207.3h11.7l68.3 78.5m26.8-78.7h84.6V220h-35.2v88.6h-14.6V220h-34.8" fill="#FFFFFF" class="navigation__svgs__icon__text"></path></symbol></defs><use xmlns:xlink="http://www.w3.org/1999/xlink" xlink:href="#iplayer-nav-icon-bbcparliament" href="#iplayer-nav-icon-bbcparliament" role="presentation" fill="#FFFFFF"></use></svg>