<svg xmlns:xlink="http://www.w3.org/1999/xlink" xmlns="http://www.w3.org/2000/svg" role="presentation" class="channels-nav__item__logo channels-nav__item__logo--active" focusable="false" width="1140"  height="480" ><defs><symbol id="iplayer-nav-icon-bbcnews-active" viewBox="0 0 1140 480"><path d="M151.2 2.5h25.9v190.6h-23.4L26.3 46.3v146.8H.6V2.5h22.1l128.5 148.1V2.5m75.1 0h108v24.3h-80.7v58.1h78v24.5h-78v59.1h83.3v24.3H226.3V2.5m399.2 0h27.2L575.6 194h-6L507.3 39l-62.9 155h-5.9L361.7 2.5h27.5l52.6 131.4L494.6 2.5h25.9l53.1 131.4L625.5 2.5m101.2 110.8L706 100.7c-13-7.9-22.3-15.7-27.8-23.4S670 60.7 670 50.8c0-15 5.2-27.2 15.6-36.5 10.5-9.4 24-14 40.6-14 15.9 0 30.5 4.4 43.8 13.4v30.9a63.197 63.197 0 0 0-44.4-19.9c-8.9 0-16.3 2.1-22 6.2s-8.6 9.4-8.6 15.8c0 5.7 2.1 11.1 6.3 16.1s11 10.2 20.4 15.7l20.8 12.4c23.2 13.8 34.8 31.6 34.8 53 0 15.3-5.1 27.7-15.3 37.3a56.298 56.298 0 0 1-39.9 14.4 84 84 0 0 1-51.4-17.3v-34.6c14.7 18.7 31.8 28 51.1 28 8.6 0 15.6-2.4 21.3-7.2a22.5 22.5 0 0 0 8.6-17.8c0-12.1-8.3-23.1-25-33.4" transform="translate(181 142)" fill="#FFFFFF" fill-rule="nonzero"></path><path fill="#B80000" d="M0 0h1140v480H0z"></path><path d="M310.25 335.97a6311.373 6311.373 0 0 0-31.274-48.323 9767.612 9767.612 0 0 0-31.812-48.32 2981.203 2981.203 0 0 0-31.41-46.444v143.09h-32.749v-191.95h34.363a4245.317 4245.317 0 0 1 47.647 70.335 5299.246 5299.246 0 0 1 46.845 71.946v-142.28h32.753v191.95h-34.361zm81.605-191.95h128.32v28.724H425.95v49.666h84.026v28.725H425.95v56.105h99.324v28.726h-133.42v-191.95zm321.07 191.95a7779.625 7779.625 0 0 1-19.598-68.993 4957.688 4957.688 0 0 1-18.789-69.262 9149.308 9149.308 0 0 1-18.659 69.129 5247.234 5247.234 0 0 1-19.462 69.127h-35.973a3067.825 3067.825 0 0 1-27.113-95.034 3313.793 3313.793 0 0 1-24.429-96.911h36.779a3580.391 3580.391 0 0 0 16.509 78.524 2344.656 2344.656 0 0 0 18.389 76.912 5074.658 5074.658 0 0 0 19.73-73.825 4423.445 4423.445 0 0 0 18.39-73.557h33.557a4756.365 4756.365 0 0 0 18.254 72.752 5346.503 5346.503 0 0 0 19.331 72.481c6.44-24.873 12.522-50.2 18.253-75.971a4000.408 4000.408 0 0 0 16.376-77.316h35.973a4044.963 4044.963 0 0 1-24.698 96.911 3677.953 3677.953 0 0 1-26.845 95.034h-35.973zm167.24 4.028a138.565 138.565 0 0 1-30.871-3.491c-10.203-2.324-19.78-5.906-28.725-10.738v-31.141c18.429 11.455 38.476 17.18 60.133 17.18 13.422 0 23.76-2.505 31.007-7.516 7.248-5.007 10.872-11.9 10.872-20.67 0-5.01-1.074-9.17-3.223-12.484-2.148-3.31-5.058-6.084-8.723-8.323-3.67-2.236-7.875-4.068-12.619-5.502a275.444 275.444 0 0 0-14.898-4.028c-9.49-2.324-18.12-4.965-25.907-7.918-7.783-2.955-14.497-6.485-20.132-10.604-5.637-4.116-9.981-9.217-13.02-15.303-3.048-6.082-4.563-13.51-4.563-22.28 0-11.812 2.953-21.97 8.856-30.472 5.906-8.497 14.315-15.075 25.234-19.73 10.917-4.652 23.894-6.98 38.93-6.98 9.839 0 19.594 1.167 29.258 3.49 9.665 2.328 18.254 5.461 25.77 9.397v30.334c-7.155-4.473-15.525-8.097-25.096-10.872-9.577-2.774-19.735-4.162-30.473-4.162-12.172 0-21.656 2.282-28.454 6.844-6.804 4.565-10.202 11.054-10.202 19.465 0 6.086 1.613 10.872 4.833 14.362 3.223 3.49 7.786 6.267 13.692 8.323 5.907 2.06 12.792 4.074 20.672 6.04 8.59 2.146 16.778 4.563 24.56 7.248 7.788 2.686 14.677 6.133 20.67 10.335 5.994 4.207 10.693 9.53 14.095 15.974 3.398 6.444 5.1 14.496 5.1 24.16 0 12.351-3.043 22.911-9.125 31.68-6.086 8.769-14.902 15.528-26.442 20.268-11.546 4.74-25.281 7.115-41.208 7.115z" fill="#FFFFFE"></path></symbol></defs><use xmlns:xlink="http://www.w3.org/1999/xlink" xlink:href="#iplayer-nav-icon-bbcnews-active" href="#iplayer-nav-icon-bbcnews-active" role="presentation" fill="#FFFFFF"></use></svg>