<svg xmlns:xlink="http://www.w3.org/1999/xlink" xmlns="http://www.w3.org/2000/svg" role="presentation" class="channels-nav__item__logo channels-nav__item__logo--active" focusable="false" width="901"  height="379" ><defs><symbol id="iplayer-nav-icon-radio1-active" viewBox="0 0 901 379"><rect width="100%" height="100%" fill="#FFFFFF"></rect><g fill="#000"><path d="M.435 1.9V96.26H14.12V55.267h5.68c6.97 0 12.651 2.32 25.046 21.657L57.24 96.26h16.267c-6.455-9.025-8.78-12.118-12.91-18.564-7.23-11.86-12.394-20.367-20.916-26.04 10.07-4.125 15.751-12.116 15.751-23.203 0-16.243-11.877-26.297-30.985-26.297H.436v-.259.002zM13.861 13.5h8.78c13.168 0 18.333 5.414 18.59 14.18.259 7.992-4.131 15.211-18.59 15.211h-8.78V13.5z" transform="translate(100 117)"></path><path d="M122.56 1.383h-9.553L72.469 96.261h13.944L98.29 68.416h40.021l12.652 27.845h13.943L122.56 1.384h-.001zm-4.905 20.883l15.234 34.031h-29.436l14.202-34.03zm58.355 73.995h36.923c31.243 0 50.092-22.947 50.092-47.182 0-22.172-15.234-47.18-50.092-47.18h-36.665v94.362h-.258zm13.684-82.245h20.915c26.595 0 38.473 15.985 38.473 35.063 0 11.602-6.973 35.064-37.699 35.064h-21.686V14.016h-.002zM278.517 1.9h13.685v94.362h-13.685V1.9zm29.435 47.18c0 25.525 19.624 48.47 50.35 48.47 32.016 0 51.123-22.945 51.123-48.47 0-26.297-19.621-48.47-50.865-48.47-30.726.26-50.609 22.432-50.609 48.47zm13.943 0c0-20.625 15.751-35.836 36.665-35.836 21.173 0 36.924 15.211 36.924 35.837s-15.751 35.837-36.924 35.837-36.665-15.21-36.665-35.836v-.001z" transform="translate(100 117)"></path><path d="M578.5 0C504.791 0 445 59.791 445 133.5S504.791 267 578.5 267 712 207.209 712 133.5 652.209 0 578.5 0zm24.483 222.93h-46.904V95.1h-20.103l27.834-51.545h39.43v179.38h-.258z" transform="translate(100 73)"></path></g></symbol></defs><use xmlns:xlink="http://www.w3.org/1999/xlink" xlink:href="#iplayer-nav-icon-radio1-active" href="#iplayer-nav-icon-radio1-active" role="presentation" fill="#FFFFFF"></use></svg>