<svg xmlns:xlink="http://www.w3.org/1999/xlink" xmlns="http://www.w3.org/2000/svg" role="presentation" class="channels-nav__item__logo channels-nav__item__logo--active" focusable="false" width="1140"  height="480" ><defs><symbol id="iplayer-nav-icon-bbcalba-active" viewBox="0 0 1140 480"><path d="M0 0h1140v480H0z" fill="#003167"></path><path d="M372.5 350.3l-80.6-220.9H258l-80.4 220.9h45l13.3-39.1h78.5l13.1 39.1h45zM303 274.8h-54.9l27.8-80.4 27.1 80.4zm243.3 75.5v-38.5H446.1V129.3H403v221m341.5-63.6a51.3 51.3 0 0 0-30.4-49.6 51.3 51.3 0 0 0 27.4-45.6c0-37.8-25.2-62-68.3-62h-88.8v220.9h92.4c39.4-.1 67.7-22.5 67.7-63.7zm-46.2-93.5c0 15.2-10.3 25.4-28.5 25.4h-42.1v-50.9h42.1c18.3.1 28.5 10.4 28.5 25.5zm3.1 91.2c0 14.9-9.3 27.3-28.9 27.3h-44.9v-54.3h44.9c19.6.1 28.9 12.2 28.9 27zm261 65.9l-80.6-220.9H848l-80.4 220.9h44.9l13.3-39.1h78.4l13.1 39.1h45.1zm-69.6-75.5h-55l27.9-80.4 27.1 80.4z" fill="#FFFFFF"></path></symbol></defs><use xmlns:xlink="http://www.w3.org/1999/xlink" xlink:href="#iplayer-nav-icon-bbcalba-active" href="#iplayer-nav-icon-bbcalba-active" role="presentation" fill="#FFFFFF"></use></svg>