<svg xmlns:xlink="http://www.w3.org/1999/xlink" xmlns="http://www.w3.org/2000/svg" role="presentation" class="channels-nav__item__logo channels-nav__item__logo--active" focusable="false" width="1140"  height="480" ><defs><symbol id="iplayer-nav-icon-cbeebies-active" viewBox="0 0 1140 480"><path d="M0 0h1140v480H0z" fill="#29C5FE"></path><path d="M396.4 184.3l-7 19.4c6 2 13.1 1.2 19.4 2.4-2.2-3-11.2-26-12.4-21.8zM261.2 291.5c10.8-1 12.2-5 4.4-12.4l-4.4 12.4zm-49.5 25.3a37 37 0 0 1-19.4-9.4c3.6 16 20.6 53.4 43.4 44 15.3-6.4 10-34.7 16.3-48.3a47.4 47.4 0 0 1-40.3 13.7z" fill="none"></path><path d="M1031 311.3a67.9 67.9 0 0 0-97.6 4.3c-2-10.5 3-7.6 7.2-15.5 10.2-18.8 20.2-33.7 10.8-56.4-15.1-37.2-65.8-41-95.5-19.6 1.4-21.3 22.7-23.1 27.3-46.3 3.8-18.8-7.5-34.7-27.2-38.3-16.4-3-28.2 4.4-35 19.2-5 11 4.3 30.5 1 37.4-2 4.3-22.3 12.6-26.6 16.2 4-40.6-23.4-73-65.9-63.8 9.7-34.6 67-96.3-1.3-112.6-69.8-16.7-51.5 80-72.2 112.5-11.4-75-118.8-49.7-129.4 13.1-20.4-16.7-15-46.7-44.2-60.8-37.2-18-74.4 10.8-84.3 46.9-16.3-35.9-80.2-20.2-105-5.7-36.9 21.8-51.6 57.4-41.5 99.5-42-36.7-89.6-53.1-126.5-3.5-25.3 34.2-34.1 76.5-17.5 116.6 18 43.9 65.7 93.3 117 91.2 45.2-2 116.8-62.3 102.4-112.7 50.2 14.4 162.3-22.5 132.2-92.9 27.7 4.8 56.1-8 74.5-28.6 15 28.7 74.5 64.4 101.1 30.2 16.6 58 87.4 69.4 130.5 32.6 13 23 45 22.3 62.5 6.2-.7 38.2 52 100.5 92.8 68 0 18.4-32.3 21.4-30.9 49.6 1.8 35.8 47.3 53.7 77.7 46.4a62.5 62.5 0 0 0 37.6-26c7.1-10.9 3.6-28 9-36.3 4.4-7 20.4-9.6 26.3-20.4a41.3 41.3 0 0 0-9.3-50.5zm-634.6-127c1.6-3.6 9.6 18 12.4 21.8-6.3-1.5-13.4-.4-19.5-2.4l7-19.4zm-130.7 94.8c7.8 7.3 6.4 11.4-4.4 12.4l4.4-12.4zm-13.7 24c-6 13.4-1.3 42-16.3 48.2-22.5 9.4-40.2-28.5-43.4-43.9 17.9 15.3 43.4 11.3 59.7-4.3z" fill="#000"></path><path d="M1021.5 321.5a54.4 54.4 0 0 0-67.3-6.2c-24.4 17.2-19.4 33.4-5.7 52 5.8 8 25.8 13.2 14.4 27.6-10.5 13.4-16.5 3.2-23.7-4-9.9-9.8-8-29.2-26.8-14.4-12.4 9.9-8.9 24.9-2 35.8 27.8 44 113.6 8 79.4-39.2-6.7-9.4-28.6-13.2-17.2-29.2 13-18 18.8 2.8 25.8 8.9 9.9 8.5 8.3 22.4 24.6 9.3 13.7-10.9 9.4-30.4-1.5-40.6zM844.4 195.3c11.1 4.4 27.3-17.6 24.6-27.2-3.6-12.7-27.8-20.8-33-4.4-4.1 10.6-4.4 26.8 8.4 31.6zm72.8 134.1c15.4-27.6-20.9-16-31.4-23.9-16.5-12-11.7-18.7 1.2-20 21-2.2 34.8 24.3 50.5-4.7 9.8-18 .8-41.7-16.2-51-37.8-20.8-80.3 13.5-79.3 53 .6 29.4 52.8 85.8 75.2 46.6zM605 115.3c-46.8-2-80.3 43.3-59.8 87.4a62.7 62.7 0 0 0 53.4 35.8c14 .6 44.4-10.3 28.6-32.1-9.9-13.5-38.4 10.3-47.8-13.2-9.8-24.5 32-1.7 43.3-5 38.9-11.3 17.7-71.2-17.7-72.9zM306 323.5c-52.5-55.2-30.2 17.9-57.8 38.3-33 24.3-89.6-46.8-70.2-76.3 13-19.8 28.8 33.4 59.8 11.1 47.2-34-36.9-87.7-70.5-76.8-30.6 10-52.4 56-54.3 85.5-3.3 47.8 34.6 100.3 77.5 119.4 30.8 13.6 59.1 4.4 83.9-16.2 21-17.7 58.2-58.5 31.6-85zm218.7-143.4c-13.8-31-27.4 7.6-40.8 11.6-17.4 5.3-26.4-.8-16.3-14 13.2-17.3 42.7-16.8 28.6-46.3-8.5-18.1-32.1-26.9-50.7-20.8-51.4 17.2-42.3 90 .8 110.2 27 12.7 93.1-1.2 78.4-40.7zM807 219.7c-15.6 13.6-48.3 69.8 0 55.6 35.4-10.6 45.2-94.6 0-55.6zm-26.8-24.5c-1.2-14-8.2-25-21.4-30.6-10.3-4.3-26.6 3.7-34.7-.5-23.3-12-.3-39 9-54.7 11.9-19.8 24.1-60.7-15.2-60-32 .6-35.8 43.5-38.4 67-5.4 47.9-66.1 107.1-10.3 151.2 50.8 40.2 118.9-15.1 111-72.4z" fill="#FFE40F"></path><path d="M437 231.6c-17.7-15.5-55.6-4.3-60.3-32.3-3.1-19 21.6-33.4 2.8-51.8-28.7-28-94.7 7.9-109.6 36-26.1 49.5 15 124.6 67 136.9 39.7 9.5 159.5-37.3 100.2-88.8z" fill="#FFE40F"></path><path d="M914.4 250.8c-11.8-18.3-38.7-2-27.6 13.8 8.8 12.2 36.6.1 27.6-13.8zm-327.9-97.1c-6.6 19.8 47.4 26.2 37-2.5-5.2-14.5-32.2-11.8-37 2.5zM467.6 131c-14-12-40.8 15.4-31.8 29 11.7 18 49.6-13.7 31.8-29zm236.2 60.1c-27 6.2 8.4 81.4 42.3 37.1 19.5-25.5-20.2-42-42.3-37zM338 215.5c18.3-21.1-1.7-60.5-27-35.9-21.3 20.5 10.6 55.1 27 36zm1.4 35.5c-23.3 17 47 68 51.1 11.8 2-26-35.1-23.5-51.1-11.9z" fill="#4E2F90"></path></symbol></defs><use xmlns:xlink="http://www.w3.org/1999/xlink" xlink:href="#iplayer-nav-icon-cbeebies-active" href="#iplayer-nav-icon-cbeebies-active" role="presentation" fill="#FFFFFF"></use></svg>