<svg xmlns:xlink="http://www.w3.org/1999/xlink" xmlns="http://www.w3.org/2000/svg" role="presentation" class="channels-nav__item__logo" focusable="false" width="1140"  height="480" ><defs><symbol id="iplayer-nav-icon-cbeebies" viewBox="0 0 1140 480"><path d="M259 291.3c10.8-1 12.3-5 4.5-12.4l-4.5 12.4zm135.3-107.2l-7.1 19.5c6.1 1.9 13.2 1.2 19.4 2.4-2.1-3.1-11.1-26-12.3-21.9zM209.6 316.6a37 37 0 0 1-19.4-9.3c3.6 16 20.6 53.4 43.4 43.9 15.2-6.4 10-34.7 16.3-48.3a47.4 47.4 0 0 1-40.3 13.7z" fill="none"></path><path d="M1028.8 311a67.9 67.9 0 0 0-97.5 4.4c-2-10.4 3-7.5 7.2-15.5 10.2-18.8 20.1-33.7 10.8-56.4-15.1-37.2-65.8-40.9-95.5-19.5 1.4-21.4 22.6-23.2 27.3-46.3 3.7-18.9-7.5-34.7-27.2-38.3-16.5-3-28.2 4.3-35 19.2-5 10.9 4.3 30.5 1 37.3-2 4.3-22.3 12.6-26.6 16.2 4-40.6-23.4-73-65.9-63.7 9.7-34.7 67-96.4-1.3-112.7-69.9-16.7-51.5 80-72.3 112.6-11.4-75.2-118.8-49.7-129.3 13-20.4-16.6-15-46.6-44.2-60.8-37.2-18-74.4 10.8-84.3 47-16.4-36-80.2-20.2-105-5.7-36.9 21.7-51.6 57.3-41.6 99.5-41.8-36.8-89.5-53.2-126.4-3.5-25.4 34.2-34.1 76.4-17.6 116.5 18.2 44 65.8 93.4 117 91.2 45.3-2 117-62.3 102.5-112.7 50.2 14.4 162.3-22.4 132.1-92.9 27.8 4.8 56.2-7.9 74.6-28.5 15 28.7 74.5 64.3 101.1 30 16.6 58 87.4 69.6 130.5 32.7 13 23 45 22.4 62.5 6.3-.7 38.1 52 100.4 92.7 67.9 0 18.5-32.2 21.5-30.8 49.7 1.8 35.7 47.3 53.6 77.6 46.3a62.5 62.5 0 0 0 37.7-26c7.1-10.8 3.6-28 8.9-36.3 4.4-7 20.5-9.6 26.4-20.4a41.3 41.3 0 0 0-9.4-50.5zm-195-147.5c6.8-20.5 39.9-4.7 29 17.8-13.6 28.2-37.1 7-29-17.8zM394.3 184c1.5-3.6 9.6 18 12.3 21.9-6.2-1.6-13.3-.5-19.4-2.4l7-19.5zm-130.7 95c7.8 7.4 6.4 11.4-4.4 12.4l4.4-12.4zm43 47.3c24 25.3-17.2 68.2-36.6 83.8-28 22.5-59.6 28-91.5 9-40.4-24-74.9-74.7-66.6-123.3 5.2-30 30.3-75.7 64-78 34.8-2.4 112.8 61 52 83-28.7 10.5-43.3-42.5-53-8.6-9 31.6 41.9 97.6 74 67.5 13.1-12.3 3.5-34.7 12.7-47.8 15.4-22.2 31 .3 45 14.4zM250 303c-6 13.5-1.3 42-16.3 48.3-22.6 9.3-40.2-28.6-43.4-44 17.8 15.3 43.4 11.3 59.7-4.3zm152.9 9.3c-116.5 55.7-204.7-135.1-80-168.6 18.4-5 54.6-8.2 62.1 14.9 6.1 18.8-19.5 34.8-5 53.4 14.9 19 47.5 3.4 62.4 28.8 18.5 31.4-14 59.1-39.5 71.5zM516.4 207c-37 33.3-104.2 18.7-109-36.9-3.6-41.4 50-88.4 82.5-45.7 18.1 23.9 2.3 33.7-16 47.8-11.1 8.6-27 20 0 20.1 19.7.1 21.4-28.4 39.4-22.3 17.3 6 13.2 28 3.1 37zM626 223.6c-17.2 48.4-86.2-9.5-88.6-43.4-2.8-39.9 37.5-78.9 78-62.3a42.5 42.5 0 0 1 25.5 43.3c-3.3 29.5-21.6 25.8-44.8 23.3-14.1-1.6-32.4-2.5-13.9 14.5 13.6 12.5 55-7.2 43.8 24.6zm135.2 29.9c-42 59.8-127.9 14-115.2-54.5 4.4-22.8 22.6-37.5 29.2-59 7.6-24.4-1.4-54.6 16.3-76.5 21.9-26.7 60.1-8.2 51 25.4-5.3 19.6-26.6 33.4-29.6 54-5.3 36.3 41 8.7 58.9 32.8 16.4 22.1 3.5 58-10.6 77.8zm35 23c-42.2-4.2-1.5-57 18.8-64.3 43.6-15.7 13.7 67.3-18.8 64.2zm93.2 31.7c12.7 2.5 44.4 1.5 23 26-12.6 14.3-39 2.7-51.4-7.5-33-26.6-26.6-83.6 14.2-98.6 32.8-12 86.8 17.6 57.5 56.4-19.2 25.4-30.1-4.6-51.2-.3-14.2 3-6.9 21.1 7.9 24zm131.6 53.5c-23.8 25.4-29.1-47.6-50.4-18.2-13.5 18.8 32.7 30.8 25.8 57.5-6 23.3-34.9 34-56.4 30-19.6-3.7-62.5-43.8-25.6-57.5 16-6 37.2 48.6 48 17.4 7.3-21.1-31.6-24.6-28.2-49.6 8.8-67.8 127.4-22.9 86.8 20.4z" fill="#FFFFFF" class="navigation__svgs__icon__text"></path><path d="M891.8 270.5c19.3 2.4 32.2-26.1 7.2-28.5-15.1-1.5-23.8 26.5-7.2 28.5zm-288.6-99.8c23.9-.6 25.2-29 1.3-29-23.7-.3-26.4 30-1.3 29zm-137.8-40c-13.9-12-40.8 15.5-31.8 29.2 11.8 17.9 49.7-13.8 31.8-29.2zM701.7 191c-27 6 8.4 81.3 42.3 37 19.5-25.5-20.2-42-42.3-37zM336 215.3c18.2-21-1.8-60.4-27.2-35.8-21.2 20.5 10.7 55 27.2 35.8zm1.3 35.4c-23.3 17.2 47 68.2 51.1 12 2-26.1-35.2-23.6-51.1-12z" fill="#FFFFFF" class="navigation__svgs__icon__text"></path></symbol></defs><use xmlns:xlink="http://www.w3.org/1999/xlink" xlink:href="#iplayer-nav-icon-cbeebies" href="#iplayer-nav-icon-cbeebies" role="presentation" fill="#FFFFFF"></use></svg>