<svg xmlns:xlink="http://www.w3.org/1999/xlink" xmlns="http://www.w3.org/2000/svg" role="presentation" class="channels-nav__item__logo" focusable="false" width="76"  height="32" ><defs><symbol id="iplayer-nav-icon-bbcthree" viewBox="0 0 76 32"><rect width="76" height="32" fill="none"></rect><path d="m54.9 24h8.1v-3.7h-4.5v-2.6h3.3v-3.7h-3.4v-2.2h4.5v-3.7h-8.1v15.8h0.2zm-9.3 0h8.1v-3.7h-4.5v-2.6h3.3v-3.7h-3.4v-2.2h4.5v-3.7h-8.1v15.8h0.2zm-7.3-8.6v-3.8h0.6c0.9 0 1.9 0.9 1.9 2 0 0.9-0.8 1.8-1.9 1.8h-0.6zm-3.7 8.6h3.7v-4.9h1.2l1.4 4.9h3.9l-2-6c1.2-0.9 1.7-2.6 1.7-4.5 0-3.1-2.6-5.5-5.6-5.5h-4.3v16zm-5 0h3.7v-3.7h-3.7v3.7zm-12.6 0h3.9v-12.3h2.3v12.3h3.9v-6.5h2.3v0.8h3.9v-10.3h-3.9v6h-2.3v-6h-13.2v3.7h3.1v12.3z" fill="#FFFFFF" class="navigation__svgs__icon__text"></path></symbol></defs><use xmlns:xlink="http://www.w3.org/1999/xlink" xlink:href="#iplayer-nav-icon-bbcthree" href="#iplayer-nav-icon-bbcthree" role="presentation" fill="#FFFFFF"></use></svg>