<svg xmlns:xlink="http://www.w3.org/1999/xlink" xmlns="http://www.w3.org/2000/svg" role="presentation" class="channels-nav__item__logo" focusable="false" width="1140"  height="480" ><defs><symbol id="iplayer-nav-icon-cbbc" viewBox="0 0 1140 480"><path d="M641.8 109.1a145.6 145.6 0 0 0-59.1-16v293.8c21.2-1.2 41.2-6.8 59.1-16V109.1zM507.1 370.9a145.6 145.6 0 0 0 59.1 16V93.1a147.2 147.2 0 0 0-59.1 16v261.8zm-16.7-251.8a147 147 0 0 0 0 241.8V119.1zm222.5 61.3a145.1 145.1 0 0 0-54.4-61.2v91.7c23-.1 43.2-12.3 54.4-30.5zm-54.4 90.7v91.7a145.1 145.1 0 0 0 45.9-45.7l4.5-7.7 4-8a63.9 63.9 0 0 0-54.4-30.3z" fill="#FFFFFF" class="navigation__svgs__icon__text"></path></symbol></defs><use xmlns:xlink="http://www.w3.org/1999/xlink" xlink:href="#iplayer-nav-icon-cbbc" href="#iplayer-nav-icon-cbbc" role="presentation" fill="#FFFFFF"></use></svg>