<svg xmlns:xlink="http://www.w3.org/1999/xlink" xmlns="http://www.w3.org/2000/svg" role="presentation" class="channels-nav__item__logo channels-nav__item__logo--active" focusable="false" width="1140"  height="480" ><defs><symbol id="iplayer-nav-icon-bbcfour-active" viewBox="0 0 1140 480"><path d="M0 0h1140v480H0z" fill="#FFFFFF"></path><path d="M788.8 115.6h-35.7v144.8c0 23.3-2.9 41.6-15.7 54.3-11.3 11.3-31 20-58.4 20a72.6 72.6 0 0 1-53.6-21.1c-11.3-11.3-15-23-15-51.1v-147h-35.7v154.7c0 67.8 51.1 97.4 103.6 97.4 74 0 110.5-40.1 110.5-101v-151zM241.9 216.7h-97v-68.9h97v-32.1H109.2v248.8H145V248.8h97m34.1-8.8c0 67.5 51.4 127.6 132.8 127.6 84.2 0 134.6-60.5 134.6-127.6 0-69.3-51.8-127.7-133.9-127.7-80.6.1-133.5 58.8-133.5 127.7zm36.9 0c0-54.7 41.2-94.8 96.7-94.8 55.8 0 97 40.1 97 94.8 0 54.3-41.2 94.8-97 94.8-55.5 0-96.7-40.5-96.7-94.8zm525.6-124.4v248.7h35.7v-108h14.9c18.2 0 33.2 5.8 66 56.9l32.8 51.1h42.7c-17.1-23.7-23.3-32.1-33.9-49.2-19-31-32.8-54-55.4-68.9a62.3 62.3 0 0 0 41.6-60.9c0-43-31.4-69.7-81.7-69.7h-62.7zm35.8 30.7h23c34.6 0 48.5 14.2 48.9 37.6.4 20.8-10.6 40.5-48.9 40.5h-23v-78.1z" fill="#231F20"></path></symbol></defs><use xmlns:xlink="http://www.w3.org/1999/xlink" xlink:href="#iplayer-nav-icon-bbcfour-active" href="#iplayer-nav-icon-bbcfour-active" role="presentation" fill="#FFFFFF"></use></svg>