<svg xmlns:xlink="http://www.w3.org/1999/xlink" xmlns="http://www.w3.org/2000/svg" role="presentation" class="channels-nav__item__logo" focusable="false" width="1140"  height="480" ><defs><symbol id="iplayer-nav-icon-bbctwo" viewBox="0 0 1140 480"><path d="M230.4 158h-72.2v-38h186.4v38h-72.2v197.7h-41.9V158zm156.4-38.1h45.9L477 289.6h.6l52.9-169.7h41.3l52 169.7h.6l46.3-169.7h42.6l-68.5 235.6h-39.9l-54.6-179.4h-.6l-54.6 179.4h-38.6l-69.7-235.6zm469.6-5.9c73.6-1.4 125.5 47.9 125.5 123.4 0 73.6-52 122.8-125.5 124.1-72.5 0-124.5-49.2-124.5-122.8 0-75.5 51.9-124.7 124.5-124.7zm.3 209.6c48.9 0 81.2-37.3 81.2-87.5 0-46.9-32.3-84.2-81.2-84.2-48.6 0-80.9 37.3-80.9 84.2 0 50.3 32.3 87.5 80.9 87.5z" fill="#FFFFFF" class="navigation__svgs__icon__text"></path></symbol></defs><use xmlns:xlink="http://www.w3.org/1999/xlink" xlink:href="#iplayer-nav-icon-bbctwo" href="#iplayer-nav-icon-bbctwo" role="presentation" fill="#FFFFFF"></use></svg>