<svg xmlns:xlink="http://www.w3.org/1999/xlink" xmlns="http://www.w3.org/2000/svg" role="presentation" class="channels-nav__item__logo channels-nav__item__logo--active" focusable="false" width="1140"  height="480" ><defs><symbol id="iplayer-nav-icon-cbbc-active" viewBox="0 0 1140 480"><path d="M0 0h1140v480H0z" fill="#FFFFFF"></path><path d="M641.8 109.1a145.6 145.6 0 0 0-59.1-16v293.8c21.2-1.2 41.2-6.8 59.1-16V109.1z" fill="#008AAA"></path><path d="M507.1 370.9a145.6 145.6 0 0 0 59.1 16V93.1a147.2 147.2 0 0 0-59.1 16v261.8z" fill="#FF2C9F"></path><path d="M490.4 119.1a147 147 0 0 0 0 241.8V119.1z" fill="#9FE600"></path><path d="M712.9 180.4a145.1 145.1 0 0 0-54.4-61.2v91.7c23-.1 43.2-12.3 54.4-30.5z" fill="#F66C06"></path><path d="M658.5 271.1v91.7a145.1 145.1 0 0 0 45.9-45.7l4.5-7.7 4-8a63.9 63.9 0 0 0-54.4-30.3z" fill="#F63400"></path></symbol></defs><use xmlns:xlink="http://www.w3.org/1999/xlink" xlink:href="#iplayer-nav-icon-cbbc-active" href="#iplayer-nav-icon-cbbc-active" role="presentation" fill="#FFFFFF"></use></svg>